<svg width="34" height="47" viewBox="0 0 34 47" fill="none" xmlns="http://www.w3.org/2000/svg">
<path d="M14.9846 0C15.802 0 16.4818 0.588539 16.6228 1.36466L16.6496 1.66371V11.646C16.6496 15.6699 13.7903 19.0266 9.99121 19.7979L9.98976 44.9203C9.98976 45.8391 9.24434 46.584 8.3248 46.584C7.50744 46.584 6.82764 45.9955 6.68667 45.2193L6.65984 44.9203L6.66175 19.7986C3.04195 19.0652 0.274604 15.985 0.0192556 12.2163L0 11.646V1.66371C0 0.74487 0.745428 0 1.66496 0C2.48232 0 3.16212 0.588539 3.3031 1.36466L3.32992 1.66371V11.646C3.32992 13.8195 4.72031 15.6686 6.66082 16.3535L6.65984 1.66371C6.65984 0.74487 7.40527 0 8.3248 0C9.14216 0 9.82196 0.588539 9.96294 1.36466L9.98976 1.66371L9.9921 16.3523C11.7817 15.7192 13.1028 14.0958 13.2954 12.1412L13.3197 11.646V1.66371C13.3197 0.74487 14.0651 0 14.9846 0ZM31.6342 0C32.4516 0 33.1314 0.588539 33.2724 1.36466L33.2992 1.66371V44.9203C33.2992 45.8391 32.5538 46.584 31.6342 46.584C30.8169 46.584 30.1371 45.9955 29.9961 45.2193L29.9693 44.9203V26.6194H24.9744C24.157 26.6194 23.4772 26.0309 23.3363 25.2548L23.3094 24.9557V8.31857C23.3094 3.72435 27.0366 0 31.6342 0ZM29.9693 23.292V3.61143C28.1785 4.24391 26.8565 5.86785 26.6637 7.82321L26.6394 8.31857V23.292H29.9693Z" fill="#212121"/>
<path d="M14.9846 0C15.802 0 16.4818 0.588539 16.6228 1.36466L16.6496 1.66371V11.646C16.6496 15.6699 13.7903 19.0266 9.99121 19.7979L9.98976 44.9203C9.98976 45.8391 9.24434 46.584 8.3248 46.584C7.50744 46.584 6.82764 45.9955 6.68667 45.2193L6.65984 44.9203L6.66175 19.7986C3.04195 19.0652 0.274604 15.985 0.0192556 12.2163L0 11.646V1.66371C0 0.74487 0.745428 0 1.66496 0C2.48232 0 3.16212 0.588539 3.3031 1.36466L3.32992 1.66371V11.646C3.32992 13.8195 4.72031 15.6686 6.66082 16.3535L6.65984 1.66371C6.65984 0.74487 7.40527 0 8.3248 0C9.14216 0 9.82196 0.588539 9.96294 1.36466L9.98976 1.66371L9.9921 16.3523C11.7817 15.7192 13.1028 14.0958 13.2954 12.1412L13.3197 11.646V1.66371C13.3197 0.74487 14.0651 0 14.9846 0ZM31.6342 0C32.4516 0 33.1314 0.588539 33.2724 1.36466L33.2992 1.66371V44.9203C33.2992 45.8391 32.5538 46.584 31.6342 46.584C30.8169 46.584 30.1371 45.9955 29.9961 45.2193L29.9693 44.9203V26.6194H24.9744C24.157 26.6194 23.4772 26.0309 23.3363 25.2548L23.3094 24.9557V8.31857C23.3094 3.72435 27.0366 0 31.6342 0ZM29.9693 23.292V3.61143C28.1785 4.24391 26.8565 5.86785 26.6637 7.82321L26.6394 8.31857V23.292H29.9693Z" fill="url(#paint0_linear_4_7)"/>
<defs>
<linearGradient id="paint0_linear_4_7" x1="16.6496" y1="0" x2="16.6496" y2="46.584" gradientUnits="userSpaceOnUse">
<stop stop-color="#340E0E"/>
<stop offset="1" stop-color="#EF9D9D" stop-opacity="0"/>
</linearGradient>
</defs>
</svg>
